<svg xmlns="http://www.w3.org/2000/svg" width="790" height="790">
  <path fill="#000" fill-rule="evenodd" d="m332 9-8 1c-10 1-23 4-29 7l-9 3c-3 0-6 1-12 5-13 9-28 16-47 22-22 8-28 11-38 18l-21 12c-22 11-39 25-49 41a462 462 0 0 1-27 39l-15 23c-13 18-26 49-28 66l-2 14c-3 20-7 31-24 68l-8 19a259 259 0 0 0-1 90 293 293 0 0 0 4 35l2 13a514 514 0 0 1 14 64l3 6c3 8 9 20 14 26a925 925 0 0 1 23 27l12 15c7 10 17 21 20 24l8 9 12 13 17 14 16 13 9 7 14 14c16 15 36 25 71 37a348 348 0 0 0 124 24c32 2 80 3 87 1l15-4 19-5 12-4 23-8 15-6 14-6 19-10c14-7 22-13 36-26l13-11 12-10c4-4 10-10 15-13a234 234 0 0 0 53-60l14-19 4-6 8-13c14-20 23-41 29-69l4-17c6-23 9-45 10-63 1-23 1-27-5-67l-2-22-3-24a480 480 0 0 1-9-45c-7-34-23-66-46-95-11-14-15-20-15-24-1-4-7-15-12-20l-19-12-22-15c-23-19-39-29-65-41l-12-6c-18-10-32-16-54-19-26-5-38-8-54-15-17-8-22-9-46-10l-32-2c-19-3-48-5-51-3m-3 25c-13 2-20 4-26 7a388 388 0 0 1-36 16l-24 11c-17 5-34 12-39 15l-32 19c-14 7-29 22-43 45l-12 17a360 360 0 0 0-38 65c-3 7-5 12-6 19a217 217 0 0 1-25 82 87 87 0 0 0-12 42c-2 25-2 26-1 37a367 367 0 0 1 5 46l2 13 2 12a259 259 0 0 0 9 39c0 4 1 5 4 3 3-3 14-7 27-11l18-5 5-1v-34l-2-41c-2-8-7-52-8-68-2-53-4-77-6-77-3 0-10-4-11-8l-5-8c-5-10 2-22 16-30 2-1 6-3 7-5 13-11 32-22 43-23 19-2 28-2 37 0 13 3 42 3 52-1 15-6 37-2 46 8 3 2 4 3 9 3 9 2 12 5 18 20 4 8 4 9 5 21l1 13 5 2c29 13 45 48 35 75-9 23-24 43-36 48l-5 2v6l2 15 3 23v3l14-1 19-1c9-2 70-1 86 1s14 3 16-11l13-53c18-63 20-71 14-74-9-6-14-24-9-41l6-28c11-54 45-74 83-48 8 6 10 7 18 8 20 4 44 3 66-2 13-2 24 3 46 22l13 9 13 10 6 6-1 13c0 19-4 26-14 29-2 1-4 2-4 4l-7 26 6 4c18 9 32 51 27 79-7 30-26 43-68 45h-13l-1 6-5 16c-5 13-6 16-4 16l8 2a557 557 0 0 0 35 12l8 3a1457 1457 0 0 1 52 17c2 0 2 0 5-14l4-17a264 264 0 0 0 5-121l-2-22-2-19-4-23c-7-49-19-74-55-122-5-7-9-13-10-17-5-11-7-14-16-20-18-10-24-14-32-20-20-17-33-25-57-36-6-2-15-7-21-11-13-7-25-11-45-14-23-5-38-9-48-14-15-7-24-9-47-10l-32-2c-25-4-40-4-50-2m188 171c-13 4-19 16-26 51l-4 16c-5 17 2 28 7 11 2-4 3-6 6-8l4-4c0-2 9-20 13-24 8-11 24-11 44-2 15 6 36 10 65 11l23 1 14 6 21 6c10 0 11 0 11-8v-7l-6-4c-8-5-16-10-25-18-11-10-16-13-22-11-36 8-84 3-97-8-8-7-22-11-28-8m-276 24-12 3c-12 4-38 4-49 1-13-4-40-2-48 4a14125 14125 0 0 0-30 21c-11 5 14 10 27 5a320 320 0 0 1 41-14c11-4 13-4 22 3 6 5 9 5 24 1l13-1 17-2c18-2 25 3 27 18 0 4 1 7 4 10l6 10 1 5 1-4c3-18-1-48-6-46-3 1-8-1-14-7-7-6-8-6-18-7h-6m291 32-8 18c0 2-4 8-6 8l-5 7c-3 6-6 11-10 13-3 1-3 2-3 6 0 6-5 31-10 45a459 459 0 0 0-10 39c-5 12-13 54-12 56l37 5a243 243 0 0 1 52 8l53 12 10-27 8-32c4-17 8-26 17-44a231 231 0 0 0 16-37c5-10 16-47 15-48l-10-3c-22-9-20-9-40-9-24 0-52-5-71-13-12-5-21-6-23-4m-360 10a1736 1736 0 0 1-52 16c-6 0-6-1-4 14l2 31c3 55 5 79 8 95l2 39c0 27 0 31 2 31l16-7a229 229 0 0 1 70-24c5-2 16-3 37-6a255 255 0 0 0 35-7h4l-1-5a1216 1216 0 0 0-9-64 924 924 0 0 0-5-50c-1-17-1-18-4-19l-8-13c-2-6-6-12-7-13-2-3-5-8-6-13l-1-3h-13l-18 1c-17 4-30 3-38-3-3-2-3-2-10 0m403 26a408 408 0 0 1-23 73c-12 34-13 41-5 45 8 5 15 0 17-13l3-11c7-17 22-62 24-74 3-17-4-27-16-20m-270 3c-1 4-3 8-6 11l-2 3 1 16 5 46c0 5 2 5 9-2 25-27 24-56-2-74l-4-3-1 3m309 14c-4 1-6 4-7 12l-8 25a592 592 0 0 0-14 38c-9 19-9 25-2 29 5 2 15-1 15-5l5-11c9-21 25-70 25-77 0-9-7-14-14-11m-471 1c-6 3-8 17-4 37a456 456 0 0 0 10 49c2 15 6 20 14 20 9 0 15-15 9-23a260 260 0 0 1-14-66c-1-15-6-21-15-17m56 3c-9 6-12 82-4 91 10 9 18 2 17-15 0-10 1-53 3-66 1-9-8-15-16-10m35 2c-4 3-6 7-4 12 3 11 5 23 5 33 0 15 5 34 10 36 11 6 17-2 14-18l-2-16c0-33-10-55-23-47m289 15c-2 1-3 4-4 7l-4 14-4 11-2 7c-6 18-6 27 1 30 8 5 15 0 17-13 1-8 4-17 9-31 8-23 1-37-13-25m157 14a273 273 0 0 0-14 31 199 199 0 0 0-15 39l-2 5h11c25-2 33-5 39-18 7-14 5-36-4-53-8-16-10-16-15-4M356 470l-21 2a500 500 0 0 0-85 13c-33 4-78 16-87 23a241 241 0 0 1-66 25l-25 9-3 1 7 2 11 2a417 417 0 0 0 52 7c21 3 85 2 111-2 14-2 48-13 74-24 36-16 71-18 115-5a546 546 0 0 1 92 32l17 4c36 10 139 6 160-6 3-3 10-6 14-7 8-3 8-3 3-5l-13-5a358 358 0 0 0-45-16l-17-6-14-4a492 492 0 0 0-90-21l-7-1c-4-2-25-5-38-6l-22-2a715 715 0 0 0-123-10m1 62a547 547 0 0 1-107 37 545 545 0 0 1-181-10c-4-1-4 1 2 8l8 10 12 14 12 14 14 19 17 1 19 2 16 2 23 3c32 4 55 1 88-12 9-5 18-7 27-10l25-6c52-16 85-16 118-3 5 3 14 5 36 10l18 6c15 5 40 10 49 10l16 3a267 267 0 0 0 94 1c3 0 5-1 8-4l19-25a282 282 0 0 1 20-29l4-6-4 2c-23 13-127 15-172 3-17-4-25-6-47-15a258 258 0 0 0-134-25m20 76a511 511 0 0 0-65 17c-13 4-21 6-42 15-23 9-49 11-86 7l-45-5-6-1 4 4 9 8 13 12 15 12c3 2 9 6 13 12 17 18 20 18 57 18 30-1 44-5 74-20s60-18 102-12l31 5c18 2 26 4 44 10 30 11 46 14 72 15h19l9-8a247 247 0 0 1 27-24l16-13c14-11 14-12 8-11a291 291 0 0 1-103-8c-13-1-38-7-43-10l-26-7-28-7a171 171 0 0 0-69-9m-10 81-11 2c-11 2-19 5-35 12-27 13-48 19-68 20h-13l6 3a619 619 0 0 0 135 28 439 439 0 0 0 92-3c4 0 12-3 17-5l16-5c4 0 12-3 18-5a438 438 0 0 1 29-13l5-2-7-1c-15-1-40-8-60-15-16-6-22-7-36-9l-21-3a237 237 0 0 0-67-4"/>
</svg>