<?xml version="1.0" standalone="no"?>
<!DOCTYPE svg PUBLIC "-//W3C//DTD SVG 20010904//EN"
 "http://www.w3.org/TR/2001/REC-SVG-20010904/DTD/svg10.dtd">
<svg version="1.0" xmlns="http://www.w3.org/2000/svg"
 width="700.000000pt" height="700.000000pt" viewBox="0 0 700.000000 700.000000"
 preserveAspectRatio="xMidYMid meet">
<metadata>
Created by potrace 1.14, written by Peter Selinger 2001-2017
</metadata>
<g transform="translate(0.000000,700.000000) scale(0.100000,-0.100000)"
fill="#000000" stroke="none">
<path d="M2862 6910 c-169 -27 -370 -93 -467 -154 -101 -63 -212 -115 -341
-159 -162 -56 -269 -103 -352 -155 -42 -27 -134 -81 -204 -120 -271 -151 -330
-205 -510 -467 -453 -661 -512 -776 -563 -1105 -37 -235 -42 -252 -207 -630
-94 -215 -104 -255 -117 -478 -16 -258 36 -769 106 -1047 19 -77 50 -214 67
-306 29 -147 39 -178 88 -280 45 -91 76 -137 154 -229 54 -63 151 -182 216
-265 218 -274 363 -426 568 -591 102 -82 230 -192 285 -245 158 -152 288 -225
598 -338 541 -197 756 -231 1577 -248 l305 -6 145 37 c413 106 879 296 1085
444 56 40 337 277 430 362 33 31 78 69 100 85 116 85 316 303 416 453 29 42
80 115 115 162 72 99 239 362 279 440 69 137 146 398 216 738 58 282 66 561
26 857 -14 105 -33 260 -42 345 -9 85 -27 206 -41 267 -13 62 -35 176 -49 253
-43 238 -130 468 -254 674 -28 45 -102 152 -165 237 -80 106 -122 171 -135
210 -41 123 -73 156 -268 284 -98 65 -207 141 -243 169 -169 136 -254 188
-552 339 -298 151 -347 169 -595 218 -229 45 -321 71 -457 130 -142 62 -175
69 -416 84 -124 8 -286 22 -360 30 -226 24 -314 25 -438 5z m405 -215 c65 -8
219 -22 343 -30 124 -8 245 -20 270 -26 25 -5 106 -34 180 -64 137 -54 286
-96 485 -135 139 -27 246 -62 321 -106 32 -18 136 -72 231 -118 191 -93 292
-156 433 -269 52 -42 153 -111 225 -154 71 -42 144 -90 162 -107 20 -16 51
-65 75 -115 22 -47 93 -160 158 -251 222 -311 315 -492 379 -745 25 -96 82
-460 96 -608 9 -89 23 -202 31 -252 46 -287 41 -592 -15 -860 -35 -166 -100
-437 -106 -444 -5 -4 -923 297 -934 306 -3 2 14 59 37 126 23 67 46 140 50
162 l8 40 119 6 c358 19 519 119 590 364 14 47 16 83 12 179 -6 142 -31 245
-87 361 -46 95 -92 151 -159 194 l-49 32 29 112 c16 62 33 118 37 126 5 8 30
27 57 41 70 38 85 73 97 226 5 69 7 131 5 139 -6 15 -107 97 -222 179 -44 31
-111 81 -150 112 -38 30 -99 69 -134 86 -77 39 -134 42 -292 15 -131 -21 -331
-22 -453 -2 -78 13 -99 21 -167 66 -185 121 -344 140 -478 55 -61 -39 -137
-129 -179 -212 -47 -93 -67 -161 -118 -389 -61 -270 -49 -376 51 -478 35 -36
37 -40 30 -85 -8 -61 -46 -211 -95 -382 -49 -172 -166 -640 -175 -702 -10 -70
-17 -72 -142 -59 -206 21 -580 24 -822 7 -123 -9 -225 -15 -226 -14 -4 7 -45
356 -45 384 0 28 6 35 55 58 127 63 299 329 326 507 33 208 -103 457 -303 560
-76 38 -72 31 -83 174 -12 147 -103 314 -180 330 -14 3 -37 7 -51 10 -15 4
-43 19 -63 35 -99 79 -248 102 -389 59 -66 -20 -99 -23 -232 -24 -91 0 -187 6
-233 14 -119 21 -323 10 -410 -23 -78 -29 -180 -89 -252 -146 -27 -21 -75 -56
-105 -76 -105 -69 -159 -139 -160 -205 0 -61 97 -199 141 -199 9 0 19 -7 23
-15 10 -26 25 -214 36 -445 13 -275 23 -398 56 -650 29 -226 43 -446 44 -680
l0 -165 -78 -19 c-114 -28 -281 -84 -331 -112 -24 -13 -49 -24 -55 -24 -28 0
-116 434 -136 665 -6 66 -20 189 -30 273 -17 133 -19 173 -10 295 19 267 27
297 134 516 107 218 169 419 195 631 14 111 30 159 106 315 78 161 169 311
289 480 51 72 121 173 156 225 36 54 102 134 154 185 79 79 116 105 281 202
215 127 275 156 436 211 63 22 155 59 204 82 50 23 123 55 162 71 40 16 130
56 200 88 86 40 155 65 208 75 44 8 89 17 100 19 46 10 222 6 332 -8z m1473
-1528 c19 -9 64 -34 99 -56 74 -47 133 -66 273 -87 128 -20 412 -14 536 10
101 21 112 17 233 -86 46 -39 128 -100 182 -135 l97 -63 0 -53 c0 -29 -5 -58
-12 -65 -29 -29 -199 3 -335 64 -50 21 -78 25 -247 34 -306 16 -398 32 -616
107 -228 78 -311 63 -396 -68 -25 -38 -55 -91 -66 -117 -11 -26 -38 -66 -59
-89 -21 -22 -47 -64 -60 -92 -14 -34 -27 -51 -39 -51 -41 0 -40 64 6 260 85
370 115 438 219 494 37 20 135 17 185 -7z m-2466 -211 c19 -8 59 -35 90 -60
39 -31 66 -46 86 -46 36 0 54 -25 69 -100 15 -68 16 -304 2 -327 -10 -17 -10
-17 -11 1 0 11 -20 52 -45 92 -25 39 -45 80 -45 91 0 43 -31 123 -57 142 -49
40 -92 44 -267 26 -88 -9 -194 -23 -234 -32 -85 -18 -107 -14 -172 31 -27 18
-60 36 -74 40 -28 7 -264 -63 -411 -122 -81 -33 -99 -36 -185 -36 -90 0 -140
12 -140 34 0 13 309 225 350 240 63 22 270 25 376 5 122 -23 334 -16 439 13
84 24 183 27 229 8z m2611 -293 c236 -84 381 -112 635 -122 l195 -8 117 -47
c65 -25 124 -46 133 -46 28 0 27 -26 -4 -131 -68 -232 -137 -412 -250 -647
-104 -217 -114 -245 -175 -489 -57 -227 -121 -403 -146 -403 -9 0 -143 29
-296 64 -292 68 -412 91 -529 100 -38 4 -148 16 -242 28 l-173 22 0 33 c0 46
46 277 75 376 13 45 38 138 55 207 17 69 49 185 70 258 42 143 80 321 80 377
0 28 6 37 30 50 17 9 43 38 61 69 16 30 47 74 69 99 21 24 58 86 80 138 23 52
47 97 53 102 17 11 81 -1 162 -30z m-3244 -78 c75 -34 138 -39 262 -21 59 9
156 16 216 16 l108 0 11 -37 c6 -21 32 -72 57 -113 24 -41 45 -79 45 -84 0
-12 58 -105 83 -133 14 -16 22 -45 27 -105 29 -305 53 -526 75 -673 14 -93 33
-231 43 -306 l18 -137 -116 -26 c-63 -15 -194 -38 -290 -51 -367 -52 -573
-109 -831 -231 -86 -40 -168 -76 -182 -79 -25 -7 -25 -5 -31 57 -3 34 -8 167
-11 294 -3 127 -12 276 -20 330 -21 145 -76 905 -79 1104 l-1 64 40 8 c22 4
139 38 260 76 121 39 230 70 242 71 11 1 45 -10 74 -24z m1192 -319 c138 -154
116 -374 -56 -562 -35 -38 -66 -64 -76 -62 -17 3 -21 35 -56 401 l-16 168 30
45 c17 26 35 62 42 81 l11 34 46 -37 c26 -20 60 -51 75 -68z m3274 -303 c7
-10 29 -49 49 -87 120 -232 89 -507 -67 -587 -43 -21 -203 -49 -288 -49 -47 0
-52 2 -46 18 4 9 21 62 40 117 18 55 47 132 65 170 18 39 47 107 65 151 19 45
56 127 84 183 53 104 70 119 98 84z m-2658 -1133 c240 -11 435 -29 651 -60 74
-11 224 -29 332 -40 108 -11 241 -29 295 -40 54 -11 168 -31 253 -45 261 -43
468 -99 935 -251 219 -72 535 -193 535 -205 0 -4 -31 -19 -70 -34 -38 -14 -79
-35 -92 -45 -55 -42 -235 -79 -503 -101 -185 -15 -709 -6 -820 15 -145 26
-257 56 -327 87 -196 86 -471 180 -723 248 -204 54 -299 71 -440 78 -209 10
-363 -20 -609 -119 -183 -73 -431 -158 -546 -186 -145 -36 -233 -43 -606 -49
-439 -7 -649 10 -983 77 -53 11 -100 20 -105 20 -47 0 153 74 339 125 149 41
312 106 453 181 156 83 379 149 675 199 78 13 207 37 287 54 172 35 317 56
575 80 237 23 224 23 494 11z m198 -555 c218 -29 422 -86 641 -181 235 -102
459 -168 677 -198 437 -60 1078 -36 1290 49 32 14 60 23 62 21 2 -2 -27 -45
-65 -97 -38 -52 -85 -121 -106 -154 -49 -75 -183 -253 -213 -281 -38 -35 -172
-49 -463 -49 -232 0 -269 3 -410 28 -85 15 -201 33 -257 41 -118 18 -261 53
-388 96 -49 17 -148 44 -220 61 -71 17 -163 44 -204 60 -283 113 -566 113
-971 -1 -58 -16 -153 -41 -211 -55 -118 -28 -245 -70 -330 -108 -79 -36 -238
-83 -342 -102 -137 -25 -315 -21 -592 14 -132 17 -301 35 -375 42 -74 6 -135
12 -136 13 -21 34 -156 204 -239 301 -201 236 -234 284 -182 272 182 -44 504
-90 762 -108 185 -13 581 -7 750 11 214 23 669 168 985 313 52 25 64 26 237
26 109 1 229 -5 300 -14z m-43 -666 c59 -6 149 -21 199 -34 226 -56 565 -148
649 -174 127 -41 156 -47 288 -70 63 -11 158 -29 210 -40 185 -40 358 -54 593
-48 194 4 216 3 205 -11 -7 -8 -92 -79 -188 -157 -96 -78 -219 -184 -273 -235
l-98 -93 -157 6 c-236 10 -367 35 -617 121 -181 62 -216 69 -515 117 -217 34
-298 42 -450 46 -272 7 -414 -22 -650 -134 -162 -77 -251 -111 -346 -134 -188
-45 -555 -44 -648 1 -25 11 -78 55 -118 96 -40 42 -116 110 -168 152 -96 76
-341 294 -337 298 1 2 117 -11 257 -28 204 -24 297 -30 465 -31 255 -1 325 12
555 101 161 62 481 163 656 207 224 55 305 63 488 44z m81 -723 c395 -56 492
-75 678 -135 231 -75 355 -108 475 -123 50 -7 92 -15 92 -18 0 -4 -26 -17 -57
-30 -32 -13 -101 -43 -153 -67 -52 -24 -144 -58 -205 -74 -60 -16 -150 -43
-198 -60 -141 -48 -292 -63 -652 -63 -269 -1 -332 2 -474 22 -317 44 -613 107
-888 191 -180 54 -183 57 -72 65 193 15 312 47 559 153 218 94 263 110 375
133 112 23 375 26 520 6z"/>
<path d="M5121 4377 c-21 -10 -30 -34 -62 -157 -21 -80 -61 -210 -89 -290
-115 -322 -159 -457 -166 -507 -6 -49 -5 -54 24 -83 23 -22 40 -30 67 -30 51
0 79 34 100 123 10 40 37 124 60 187 23 63 65 185 93 270 93 285 108 372 78
445 -22 51 -59 66 -105 42z"/>
<path d="M5417 4198 c-16 -16 -32 -51 -47 -108 -22 -83 -32 -114 -147 -425
-101 -275 -104 -286 -98 -316 13 -56 71 -74 134 -41 26 13 40 33 68 97 95 217
233 644 233 721 0 84 -85 126 -143 72z"/>
<path d="M4665 4052 c-45 -28 -51 -39 -90 -163 -19 -62 -49 -156 -65 -208 -53
-173 -49 -229 21 -264 69 -33 116 10 139 126 6 34 32 124 56 201 54 167 63
236 37 286 -22 42 -54 49 -98 22z"/>
<path d="M1272 4210 c-81 -33 -69 -262 37 -716 35 -152 42 -171 70 -196 51
-46 113 -32 146 32 23 45 18 87 -24 216 -43 132 -86 335 -96 459 -14 177 -53
237 -133 205z"/>
<path d="M1785 4190 c-35 -14 -46 -35 -67 -137 -19 -85 -22 -132 -22 -348 -1
-282 5 -315 62 -348 42 -25 77 -16 99 26 14 26 18 73 24 267 4 129 10 294 14
366 l8 130 -32 27 c-34 28 -52 32 -86 17z"/>
<path d="M2079 4165 c-46 -25 -53 -59 -29 -155 11 -47 25 -145 30 -219 17
-219 50 -326 110 -351 40 -17 79 -4 98 30 14 27 13 55 -13 325 -21 229 -44
307 -105 358 -35 30 -53 33 -91 12z"/>
</g>
</svg>
